<svg width="512" height="512" viewBox="0 0 512 512" fill="none" xmlns="http://www.w3.org/2000/svg">
  <!-- Background -->
  <rect width="512" height="512" rx="96" fill="#0f2123"/>
  
  <!-- Gradient overlay -->
  <rect width="512" height="512" rx="96" fill="url(#gradient)" opacity="0.3"/>
  
  <!-- Confetti/Celebration elements -->
  <circle cx="256" cy="256" r="120" fill="#00e5ff" opacity="0.2"/>
  
  <!-- Party popper/celebration symbol -->
  <path d="M256 150 L280 200 L330 210 L290 250 L300 300 L256 275 L212 300 L222 250 L182 210 L232 200 Z" fill="#00e5ff"/>
  
  <!-- Sparkles -->
  <circle cx="180" cy="180" r="8" fill="#00e5ff"/>
  <circle cx="332" cy="180" r="6" fill="#00e5ff"/>
  <circle cx="180" cy="332" r="6" fill="#00e5ff"/>
  <circle cx="332" cy="332" r="8" fill="#00e5ff"/>
  
  <!-- Small confetti pieces -->
  <rect x="150" y="250" width="20" height="8" rx="4" fill="#fbbf24" transform="rotate(45 160 254)"/>
  <rect x="342" y="250" width="20" height="8" rx="4" fill="#fbbf24" transform="rotate(-45 352 254)"/>
  <circle cx="256" cy="380" r="6" fill="#fbbf24"/>
  <circle cx="256" cy="132" r="6" fill="#fbbf24"/>
  
  <defs>
    <linearGradient id="gradient" x1="0%" y1="0%" x2="100%" y2="100%">
      <stop offset="0%" style="stop-color:#00e5ff;stop-opacity:1" />
      <stop offset="100%" style="stop-color:#0f2123;stop-opacity:1" />
    </linearGradient>
  </defs>
</svg>
